HIERARCHY
ROOT Hips
{
	OFFSET -13.091600 -28.302996 44.698402
	CHANNELS 6 Xposition Yposition Zposition Zrotation Xrotation Yrotation
	JOINT Chest
	{
		OFFSET -0.673000 0.623899 5.369202
		CHANNELS 6 Xposition Yposition Zposition Zrotation Xrotation Yrotation
		JOINT Chest2
		{
			OFFSET 0.000000 0.000000 4.415001
			CHANNELS 6 Xposition Yposition Zposition Zrotation Xrotation Yrotation
			JOINT Neck
			{
				OFFSET 0.000000 0.000002 10.273300
				CHANNELS 6 Xposition Yposition Zposition Zrotation Xrotation Yrotation
				JOINT Head
				{
					OFFSET 0.000000 0.000000 2.173897
					CHANNELS 6 Xposition Yposition Zposition Zrotation Xrotation Yrotation
					End Site
					{
						OFFSET 0.000000 0.000000 9.961800
					}
				}
			}
			JOINT LeftCollar
			{
				OFFSET 2.359900 -0.565201 5.928101
				CHANNELS 6 Xposition Yposition Zposition Zrotation Xrotation Yrotation
				JOINT LeftShoulder
				{
					OFFSET 5.443700 0.000000 0.000000
					CHANNELS 6 Xposition Yposition Zposition Zrotation Xrotation Yrotation
					JOINT LeftElbow
					{
						OFFSET 0.000000 0.000000 -10.615799
						CHANNELS 6 Xposition Yposition Zposition Zrotation Xrotation Yrotation
						JOINT LeftWrist
						{
							OFFSET 0.000000 -0.000002 -13.110302
							CHANNELS 6 Xposition Yposition Zposition Zrotation Xrotation Yrotation
							End Site
							{
								OFFSET 0.000000 0.000000 -2.173901
							}
						}
					}
				}
			}
			JOINT RightCollar
			{
				OFFSET -2.636600 -1.718800 6.889698
				CHANNELS 6 Xposition Yposition Zposition Zrotation Xrotation Yrotation
				JOINT RightShoulder
				{
					OFFSET -4.139101 0.000000 0.000000
					CHANNELS 6 Xposition Yposition Zposition Zrotation Xrotation Yrotation
					JOINT RightElbow
					{
						OFFSET 0.000000 0.000000 -10.471802
						CHANNELS 6 Xposition Yposition Zposition Zrotation Xrotation Yrotation
						JOINT RightWrist
						{
							OFFSET 0.000000 0.000000 -12.281898
							CHANNELS 6 Xposition Yposition Zposition Zrotation Xrotation Yrotation
							End Site
							{
								OFFSET 0.000000 -0.000002 -2.173901
							}
						}
					}
				}
			}
		}
	}
	JOINT LeftHip
	{
		OFFSET 2.273400 0.176701 -2.518002
		CHANNELS 6 Xposition Yposition Zposition Zrotation Xrotation Yrotation
		JOINT LeftKnee
		{
			OFFSET 0.000000 -0.000002 -20.456402
			CHANNELS 6 Xposition Yposition Zposition Zrotation Xrotation Yrotation
			JOINT LeftAnkle
			{
				OFFSET 0.000000 -0.000002 -16.635300
				CHANNELS 6 Xposition Yposition Zposition Zrotation Xrotation Yrotation
				End Site
				{
					OFFSET 0.000000 -8.812399 0.000001
				}
			}
		}
	}
	JOINT RightHip
	{
		OFFSET -1.914800 0.018101 -2.699299
		CHANNELS 6 Xposition Yposition Zposition Zrotation Xrotation Yrotation
		JOINT RightKnee
		{
			OFFSET 0.000000 -0.000002 -20.148901
			CHANNELS 6 Xposition Yposition Zposition Zrotation Xrotation Yrotation
			JOINT RightAnkle
			{
				OFFSET 0.000000 -0.000002 -16.838301
				CHANNELS 6 Xposition Yposition Zposition Zrotation Xrotation Yrotation
				End Site
				{
					OFFSET 0.000000 -8.328398 0.000001
				}
			}
		}
	}
}
MOTION
Frames: 4
Frame Time: 0.041667
-45.948601 -33.597996 39.038803 3236.674526 5.156099 16.224921 -0.673004 0.623898 5.369209 9.153471 24.372128 1.042162 0.000001 -0.000005 4.415007 -19.820164 -5.037089 -2.602669 0.000000 -0.000003 10.273294 -12.942175 8.186467 -24.945331 0.000004 0.000001 2.173903 -2.215153 -5.716069 -5.269615 2.359898 -0.565201 5.928101 -19.052982 18.532516 -8.830429 5.443700 -0.000002 -0.000007 -86.620705 352.415877 -83.001012 -0.000000 -0.000001 -10.615793 884.881333 -159.960531 178.713484 0.000003 -0.000004 -13.110301 -1993.441307 184.647020 -492.994967 -2.636594 -1.718801 6.889698 164.594431 -174.244901 186.805496 -4.139090 0.000004 -0.000007 -254.657374 -33.310051 167.478315 -0.000008 -0.000000 -10.471799 -404.968418 -31.493995 -753.560346 -0.000002 -0.000002 -12.281889 199.370230 204.591623 170.270728 2.273396 0.176700 -2.518003 -428.312502 -143.213467 -119.307108 0.000005 -0.000007 -20.456394 1078.824773 188.318629 -84.914865 -0.000005 -0.000005 -16.635300 -632.591685 7.329044 43.107373 -1.914797 0.018098 -2.699296 471.799743 216.860719 137.441889 -0.000001 -0.000005 -20.148897 -1207.927916 -238.638504 149.546855 0.000000 0.000002 -16.838305 1052.445162 24.067396 -2.293152
-45.117699 -32.801193 39.169605 3236.361102 5.670751 15.067793 -0.673003 0.623898 5.369223 9.178405 25.082895 1.243544 0.000000 -0.000002 4.415004 -18.773828 -5.277747 -2.532047 0.000002 -0.000004 10.273301 -14.274303 7.441059 -24.044479 -0.000003 -0.000005 2.173903 -2.394570 -5.779800 -5.369373 2.359905 -0.565205 5.928106 -19.086129 18.666366 -8.421210 5.443693 0.000001 -0.000008 -86.076749 352.441504 -85.322552 0.000007 -0.000003 -10.615794 888.898522 -158.440568 179.481020 0.000005 -0.000007 -13.110293 -1992.718291 185.392344 -493.195119 -2.636598 -1.718803 6.889705 165.362896 -175.081012 186.179455 -4.139092 -0.000000 -0.000008 -251.782575 -33.203114 168.101843 -0.000005 0.000000 -10.471793 -405.604773 -31.636938 -755.228934 0.000007 -0.000000 -12.281888 196.328938 205.524381 169.955064 2.273394 0.176701 -2.517997 -434.036856 -142.175210 -122.949293 -0.000005 -0.000005 -20.456387 1081.532369 187.535684 -86.069830 -0.000007 -0.000009 -16.635303 -633.240170 5.624468 42.319026 -1.914804 0.018100 -2.699293 469.525891 217.113040 135.962032 0.000005 -0.000007 -20.148905 -1210.791131 -238.054687 154.692515 0.000001 -0.000001 -16.838299 1055.263680 23.893434 -1.368335
-44.301601 -31.988195 39.293404 3235.944078 6.297415 13.960186 -0.673002 0.623892 5.369212 9.229379 25.583997 1.456254 0.000004 0.000002 4.415007 -17.677054 -5.489869 -2.447969 -0.000010 -0.000006 10.273315 -15.367548 6.815515 -22.978192 -0.000000 -0.000004 2.173903 -2.484059 -5.781598 -5.460522 2.359900 -0.565202 5.928110 -19.056276 18.648563 -8.279506 5.443697 0.000002 -0.000007 -85.583472 352.080433 -87.362860 0.000006 -0.000008 -10.615801 892.845498 -156.965930 180.305478 0.000010 -0.000010 -13.110294 -1991.764250 186.193662 -493.455049 -2.636607 -1.718801 6.889703 166.333725 -175.911686 185.897969 -4.139094 -0.000002 0.000002 -249.391872 -33.186106 168.374845 -0.000000 -0.000003 -10.471803 -406.272438 -31.978563 -756.421813 -0.000002 -0.000002 -12.281892 193.549652 205.666422 169.365319 2.273397 0.176703 -2.517997 -438.871182 -141.639340 -125.532484 -0.000004 -0.000010 -20.456398 1084.451428 185.612289 -86.951149 -0.000007 -0.000007 -16.635296 -634.129844 3.959496 41.359876 -1.914797 0.018096 -2.699294 467.799001 217.482908 134.441236 0.000001 -0.000010 -20.148897 -1212.837237 -237.294651 158.892139 -0.000001 -0.000005 -16.838299 1058.361526 23.221386 -0.665609
-43.513802 -31.164894 39.404503 3235.440720 7.062497 12.891170 -0.673000 0.623898 5.369204 9.285449 25.869451 1.716406 0.000004 -0.000003 4.415011 -16.524567 -5.693628 -2.352192 -0.000005 -0.000001 10.273308 -16.191100 6.280914 -21.732475 -0.000002 -0.000006 2.173900 -2.539429 -5.703348 -5.457695 2.359897 -0.565202 5.928106 -18.921168 18.498212 -7.503771 5.443698 0.000007 -0.000013 -85.177220 352.341374 -89.337276 -0.000000 -0.000003 -10.615794 896.867659 -155.479667 181.347724 0.000016 0.000001 -13.110295 -1990.637105 187.041438 -493.629465 -2.636606 -1.718799 6.889702 167.267385 -176.552126 185.887205 -4.139097 0.000004 0.000002 -247.145013 -33.259131 168.289181 -0.000011 -0.000007 -10.471802 -404.646006 -33.431122 -756.114072 0.000000 -0.000006 -12.281893 189.141913 205.776483 169.122983 2.273402 0.176705 -2.517999 -443.475686 -140.911365 -127.462354 0.000003 -0.000012 -20.456402 1088.292180 181.884017 -87.512379 -0.000007 -0.000006 -16.635296 -635.927112 2.555101 40.099836 -1.914803 0.018107 -2.699298 465.386906 217.418869 132.115489 -0.000002 -0.000004 -20.148903 -1213.028483 -236.998111 161.949577 0.000002 0.000001 -16.838301 1061.864922 22.352634 -0.058597
